# xmcd
#
# Track frame offsets:
#	150
#	9637
#	22786
#	37309
#	52767
#	67999
#	78867
#	90947
#	102818
#	120558
#	136762
#	151489
#	164097
#	177997
#
# Disc length: 2614 seconds
#
# Revision: 0
# Processed by: cddbd v1.5.2PL0 Copyright (c) Steve Scherf et al.
# Submitted via: EasyCDDAExtractor 16.0.6.1
#
DISCID=a10a340e
DTITLE=Συλλογικός δίσκος - Τραγούδια από τον κινηματογράφο-Κ. Καπνίσης
DYEAR=1990
DGENRE=Ποικίλη
TTITLE0=Χορωδία - Όμπρε γεια [Ηλίας Λυμπερόπουλος]
TTITLE1=Βουγιουκλάκη Αλίκη-Φυσσούν Κώστας - Άσ' το το χεράκι σου [Αλέκος Σακελ
TTITLE1=λάριος]
TTITLE2=Δενάρδου Κλειώ - Μπουζούκι, μπουζουκάκι μου [Αλέκος Σακελλάριος]
TTITLE3=Πουλόπουλος Γιάννης - Κλείσανε οι δρόμοι με βροχή [Μιχάλης Παπανικολάο
TTITLE3=υ]
TTITLE4=Βάνου Τζένη - Δυό, τρεις ζωές [Μίμης Τραϊφόρος]
TTITLE5=Χρονοπούλου Μαίρη - Ένα καράβι είν' η ζωή [Νέστωρ Μάτσας]
TTITLE6=Βουγιουκλάκη Αλίκη - Μού αρέσουνε τ' αγόρια [Αλέκος Σακελλάριος]
TTITLE7=Σακελλαρίου Ρίτα - Μην ερωτεύεσαι Σάββατο [Κώστας Πρετεντέρης]
TTITLE8=Βουγιουκλάκη Αλίκη - Υπάρχει πάντα ένα τραγούδι [Νίκος Φώσκολος]
TTITLE9=Πουλόπουλος Γιάννης - Το δάκρυ μας σταλιά-σταλιά [Πυθαγόρας]
TTITLE10=Χρονοπούλου Μαίρη - Ώρες αργές [Νέστωρ Μάτσας]
TTITLE11=Χρονοπούλου Μαίρη - Υπάρχει κάπου ένα παιδί [Λευτέρης Παπαδόπουλος]
TTITLE12=Βάνου Τζένη - Κάτι μού λέει [Κώστας Πρετεντέρης]
TTITLE13=Δενάρδου Κλειώ - Αγάπη μου άνοιξε να μπω [Ντίνος Δημόπουλος]
EXTD=
EXTT0=
EXTT1=
EXTT2=
EXTT3=
EXTT4=
EXTT5=
EXTT6=
EXTT7=
EXTT8=
EXTT9=
EXTT10=
EXTT11=
EXTT12=
EXTT13=
PLAYORDER=
